<svg xmlns="http://www.w3.org/2000/svg" xmlns:xlink="http://www.w3.org/1999/xlink" width="109" zoomAndPan="magnify" viewBox="0 0 81.75 30.000001" height="40" preserveAspectRatio="xMidYMid meet" version="1.0"><defs><g/><clipPath id="e66d3818f4"><path d="M 1.199219 21 L 41 21 L 41 25 L 1.199219 25 Z M 1.199219 21 " clip-rule="nonzero"/></clipPath></defs><g clip-path="url(#e66d3818f4)"><path stroke-linecap="butt" transform="matrix(0.725806, -0.00000000000000009, 0.00000000000000009, 0.725806, 1.923386, 21.68042)" fill="none" stroke-linejoin="miter" d="M -0.0020815 2.001074 L 51.083336 2.001074 " stroke="#ffffff" stroke-width="4" stroke-opacity="1" stroke-miterlimit="4"/></g><g fill="#ffffff" fill-opacity="1"><g transform="translate(1.923386, 16.560379)"><g><path d="M 12.3125 -11.71875 L 12.3125 0 L 9 0 L 9 -4.5625 L 4.484375 -4.5625 L 4.484375 0 L 1.171875 0 L 1.171875 -11.71875 L 4.484375 -11.71875 L 4.484375 -7.3125 L 9 -7.3125 L 9 -11.71875 Z M 12.3125 -11.71875 "/></g></g></g><g fill="#ffffff" fill-opacity="1"><g transform="translate(16.870042, 16.560379)"><g><path d="M 7.078125 0.234375 C 5.835938 0.234375 4.722656 -0.0234375 3.734375 -0.546875 C 2.753906 -1.078125 1.976562 -1.800781 1.40625 -2.71875 C 0.84375 -3.644531 0.5625 -4.691406 0.5625 -5.859375 C 0.5625 -7.015625 0.84375 -8.054688 1.40625 -8.984375 C 1.976562 -9.910156 2.753906 -10.632812 3.734375 -11.15625 C 4.722656 -11.6875 5.835938 -11.953125 7.078125 -11.953125 C 8.316406 -11.953125 9.425781 -11.6875 10.40625 -11.15625 C 11.394531 -10.632812 12.171875 -9.910156 12.734375 -8.984375 C 13.304688 -8.054688 13.59375 -7.015625 13.59375 -5.859375 C 13.59375 -4.691406 13.304688 -3.644531 12.734375 -2.71875 C 12.171875 -1.800781 11.394531 -1.078125 10.40625 -0.546875 C 9.425781 -0.0234375 8.316406 0.234375 7.078125 0.234375 Z M 7.078125 -2.515625 C 7.671875 -2.515625 8.207031 -2.648438 8.6875 -2.921875 C 9.164062 -3.203125 9.539062 -3.597656 9.8125 -4.109375 C 10.09375 -4.617188 10.234375 -5.203125 10.234375 -5.859375 C 10.234375 -6.515625 10.09375 -7.09375 9.8125 -7.59375 C 9.539062 -8.101562 9.164062 -8.5 8.6875 -8.78125 C 8.207031 -9.0625 7.671875 -9.203125 7.078125 -9.203125 C 6.484375 -9.203125 5.945312 -9.0625 5.46875 -8.78125 C 4.988281 -8.5 4.609375 -8.101562 4.328125 -7.59375 C 4.054688 -7.09375 3.921875 -6.515625 3.921875 -5.859375 C 3.921875 -5.203125 4.054688 -4.617188 4.328125 -4.109375 C 4.609375 -3.597656 4.988281 -3.203125 5.46875 -2.921875 C 5.945312 -2.648438 6.484375 -2.515625 7.078125 -2.515625 Z M 7.078125 -2.515625 "/></g></g></g><g fill="#ffffff" fill-opacity="1"><g transform="translate(32.486199, 16.560379)"><g><path d="M 11.75 0 L 11.71875 -6.203125 L 8.703125 -1.15625 L 7.234375 -1.15625 L 4.234375 -6.046875 L 4.234375 0 L 1.171875 0 L 1.171875 -11.71875 L 3.90625 -11.71875 L 8.015625 -4.953125 L 12.03125 -11.71875 L 14.765625 -11.71875 L 14.796875 0 Z M 11.75 0 "/></g></g></g><g fill="#ffffff" fill-opacity="1"><g transform="translate(49.909997, 16.560379)"><g><path d="M 10.578125 -2.5625 L 10.578125 0 L 1.171875 0 L 1.171875 -11.71875 L 10.359375 -11.71875 L 10.359375 -9.15625 L 4.453125 -9.15625 L 4.453125 -7.171875 L 9.65625 -7.171875 L 9.65625 -4.703125 L 4.453125 -4.703125 L 4.453125 -2.5625 Z M 10.578125 -2.5625 "/></g></g></g><g fill="#ffffff" fill-opacity="1"><g transform="translate(62.613838, 16.560379)"><g><path d="M 7.078125 0.234375 C 5.835938 0.234375 4.722656 -0.0234375 3.734375 -0.546875 C 2.753906 -1.078125 1.976562 -1.800781 1.40625 -2.71875 C 0.84375 -3.644531 0.5625 -4.691406 0.5625 -5.859375 C 0.5625 -7.015625 0.84375 -8.054688 1.40625 -8.984375 C 1.976562 -9.910156 2.753906 -10.632812 3.734375 -11.15625 C 4.722656 -11.6875 5.835938 -11.953125 7.078125 -11.953125 C 8.316406 -11.953125 9.425781 -11.6875 10.40625 -11.15625 C 11.394531 -10.632812 12.171875 -9.910156 12.734375 -8.984375 C 13.304688 -8.054688 13.59375 -7.015625 13.59375 -5.859375 C 13.59375 -4.691406 13.304688 -3.644531 12.734375 -2.71875 C 12.171875 -1.800781 11.394531 -1.078125 10.40625 -0.546875 C 9.425781 -0.0234375 8.316406 0.234375 7.078125 0.234375 Z M 7.078125 -2.515625 C 7.671875 -2.515625 8.207031 -2.648438 8.6875 -2.921875 C 9.164062 -3.203125 9.539062 -3.597656 9.8125 -4.109375 C 10.09375 -4.617188 10.234375 -5.203125 10.234375 -5.859375 C 10.234375 -6.515625 10.09375 -7.09375 9.8125 -7.59375 C 9.539062 -8.101562 9.164062 -8.5 8.6875 -8.78125 C 8.207031 -9.0625 7.671875 -9.203125 7.078125 -9.203125 C 6.484375 -9.203125 5.945312 -9.0625 5.46875 -8.78125 C 4.988281 -8.5 4.609375 -8.101562 4.328125 -7.59375 C 4.054688 -7.09375 3.921875 -6.515625 3.921875 -5.859375 C 3.921875 -5.203125 4.054688 -4.617188 4.328125 -4.109375 C 4.609375 -3.597656 4.988281 -3.203125 5.46875 -2.921875 C 5.945312 -2.648438 6.484375 -2.515625 7.078125 -2.515625 Z M 7.078125 -2.515625 "/></g></g></g><g fill="#ffffff" fill-opacity="1"><g transform="translate(40.913629, 24.63295)"><g><path d="M 2.078125 0.046875 C 1.734375 0.046875 1.421875 -0.03125 1.140625 -0.1875 C 0.859375 -0.34375 0.632812 -0.554688 0.46875 -0.828125 C 0.3125 -1.097656 0.234375 -1.40625 0.234375 -1.75 C 0.234375 -2.082031 0.3125 -2.382812 0.46875 -2.65625 C 0.632812 -2.925781 0.859375 -3.140625 1.140625 -3.296875 C 1.421875 -3.453125 1.738281 -3.53125 2.09375 -3.53125 C 2.363281 -3.53125 2.609375 -3.484375 2.828125 -3.390625 C 3.054688 -3.296875 3.253906 -3.160156 3.421875 -2.984375 L 3.09375 -2.671875 C 2.832031 -2.941406 2.503906 -3.078125 2.109375 -3.078125 C 1.847656 -3.078125 1.613281 -3.019531 1.40625 -2.90625 C 1.195312 -2.789062 1.03125 -2.628906 0.90625 -2.421875 C 0.789062 -2.222656 0.734375 -2 0.734375 -1.75 C 0.734375 -1.488281 0.789062 -1.253906 0.90625 -1.046875 C 1.03125 -0.847656 1.195312 -0.691406 1.40625 -0.578125 C 1.613281 -0.460938 1.847656 -0.40625 2.109375 -0.40625 C 2.492188 -0.40625 2.820312 -0.546875 3.09375 -0.828125 L 3.421875 -0.515625 C 3.253906 -0.328125 3.054688 -0.1875 2.828125 -0.09375 C 2.609375 0 2.359375 0.046875 2.078125 0.046875 Z M 2.078125 0.046875 "/></g></g></g><g fill="#ffffff" fill-opacity="1"><g transform="translate(45.75595, 24.63295)"><g><path d="M 2.75 -0.875 L 0.890625 -0.875 L 0.515625 0 L 0 0 L 1.578125 -3.484375 L 2.0625 -3.484375 L 3.65625 0 L 3.125 0 Z M 2.578125 -1.265625 L 1.8125 -2.984375 L 1.0625 -1.265625 Z M 2.578125 -1.265625 "/></g></g></g><g fill="#ffffff" fill-opacity="1"><g transform="translate(50.643151, 24.63295)"><g><path d="M 2.859375 0 L 2.109375 -1.078125 C 2.015625 -1.066406 1.941406 -1.0625 1.890625 -1.0625 L 1.015625 -1.0625 L 1.015625 0 L 0.515625 0 L 0.515625 -3.484375 L 1.890625 -3.484375 C 2.335938 -3.484375 2.691406 -3.375 2.953125 -3.15625 C 3.210938 -2.945312 3.34375 -2.648438 3.34375 -2.265625 C 3.34375 -2.003906 3.273438 -1.773438 3.140625 -1.578125 C 3.003906 -1.390625 2.816406 -1.253906 2.578125 -1.171875 L 3.40625 0 Z M 1.875 -1.484375 C 2.1875 -1.484375 2.425781 -1.550781 2.59375 -1.6875 C 2.757812 -1.820312 2.84375 -2.015625 2.84375 -2.265625 C 2.84375 -2.523438 2.757812 -2.722656 2.59375 -2.859375 C 2.425781 -2.992188 2.1875 -3.0625 1.875 -3.0625 L 1.015625 -3.0625 L 1.015625 -1.484375 Z M 1.875 -1.484375 "/></g></g></g><g fill="#ffffff" fill-opacity="1"><g transform="translate(55.50542, 24.63295)"><g><path d="M 3.0625 -0.4375 L 3.0625 0 L 0.515625 0 L 0.515625 -3.484375 L 2.984375 -3.484375 L 2.984375 -3.0625 L 1.015625 -3.0625 L 1.015625 -1.984375 L 2.765625 -1.984375 L 2.765625 -1.5625 L 1.015625 -1.5625 L 1.015625 -0.4375 Z M 3.0625 -0.4375 "/></g></g></g><g fill="#ffffff" fill-opacity="1"><g transform="translate(60.083434, 24.63295)"><g/></g></g><g fill="#ffffff" fill-opacity="1"><g transform="translate(62.661681, 24.63295)"><g><path d="M 1.890625 -3.484375 C 2.335938 -3.484375 2.691406 -3.375 2.953125 -3.15625 C 3.210938 -2.945312 3.34375 -2.648438 3.34375 -2.265625 C 3.34375 -1.890625 3.210938 -1.59375 2.953125 -1.375 C 2.691406 -1.164062 2.335938 -1.0625 1.890625 -1.0625 L 1.015625 -1.0625 L 1.015625 0 L 0.515625 0 L 0.515625 -3.484375 Z M 1.875 -1.484375 C 2.1875 -1.484375 2.425781 -1.550781 2.59375 -1.6875 C 2.757812 -1.820312 2.84375 -2.015625 2.84375 -2.265625 C 2.84375 -2.523438 2.757812 -2.722656 2.59375 -2.859375 C 2.425781 -2.992188 2.1875 -3.0625 1.875 -3.0625 L 1.015625 -3.0625 L 1.015625 -1.484375 Z M 1.875 -1.484375 "/></g></g></g><g fill="#ffffff" fill-opacity="1"><g transform="translate(67.499014, 24.63295)"><g><path d="M 2.859375 0 L 2.109375 -1.078125 C 2.015625 -1.066406 1.941406 -1.0625 1.890625 -1.0625 L 1.015625 -1.0625 L 1.015625 0 L 0.515625 0 L 0.515625 -3.484375 L 1.890625 -3.484375 C 2.335938 -3.484375 2.691406 -3.375 2.953125 -3.15625 C 3.210938 -2.945312 3.34375 -2.648438 3.34375 -2.265625 C 3.34375 -2.003906 3.273438 -1.773438 3.140625 -1.578125 C 3.003906 -1.390625 2.816406 -1.253906 2.578125 -1.171875 L 3.40625 0 Z M 1.875 -1.484375 C 2.1875 -1.484375 2.425781 -1.550781 2.59375 -1.6875 C 2.757812 -1.820312 2.84375 -2.015625 2.84375 -2.265625 C 2.84375 -2.523438 2.757812 -2.722656 2.59375 -2.859375 C 2.425781 -2.992188 2.1875 -3.0625 1.875 -3.0625 L 1.015625 -3.0625 L 1.015625 -1.484375 Z M 1.875 -1.484375 "/></g></g></g><g fill="#ffffff" fill-opacity="1"><g transform="translate(72.361283, 24.63295)"><g><path d="M 2.09375 0.046875 C 1.738281 0.046875 1.421875 -0.03125 1.140625 -0.1875 C 0.859375 -0.34375 0.632812 -0.554688 0.46875 -0.828125 C 0.3125 -1.097656 0.234375 -1.40625 0.234375 -1.75 C 0.234375 -2.082031 0.3125 -2.382812 0.46875 -2.65625 C 0.632812 -2.925781 0.859375 -3.140625 1.140625 -3.296875 C 1.421875 -3.453125 1.738281 -3.53125 2.09375 -3.53125 C 2.445312 -3.53125 2.765625 -3.453125 3.046875 -3.296875 C 3.328125 -3.140625 3.546875 -2.925781 3.703125 -2.65625 C 3.867188 -2.382812 3.953125 -2.082031 3.953125 -1.75 C 3.953125 -1.40625 3.867188 -1.097656 3.703125 -0.828125 C 3.546875 -0.554688 3.328125 -0.34375 3.046875 -0.1875 C 2.765625 -0.03125 2.445312 0.046875 2.09375 0.046875 Z M 2.09375 -0.40625 C 2.351562 -0.40625 2.582031 -0.460938 2.78125 -0.578125 C 2.988281 -0.691406 3.148438 -0.847656 3.265625 -1.046875 C 3.390625 -1.253906 3.453125 -1.488281 3.453125 -1.75 C 3.453125 -2 3.390625 -2.222656 3.265625 -2.421875 C 3.148438 -2.628906 2.988281 -2.789062 2.78125 -2.90625 C 2.582031 -3.019531 2.351562 -3.078125 2.09375 -3.078125 C 1.84375 -3.078125 1.613281 -3.019531 1.40625 -2.90625 C 1.195312 -2.789062 1.03125 -2.628906 0.90625 -2.421875 C 0.789062 -2.222656 0.734375 -2 0.734375 -1.75 C 0.734375 -1.488281 0.789062 -1.253906 0.90625 -1.046875 C 1.03125 -0.847656 1.195312 -0.691406 1.40625 -0.578125 C 1.613281 -0.460938 1.84375 -0.40625 2.09375 -0.40625 Z M 2.09375 -0.40625 "/></g></g></g></svg>